# xmcd CD database file
#
# Track frame offsets:
#	150
#	13762
#	27493
#	43646
#	56231
#	73870
#	94521
#	110008
#	126492
#	141581
#
# Disc length: 2122 seconds
#
# Revision: 0
# Processed by: cddbd v1.5.2PL0 Copyright (c) Steve Scherf et al.
# Submitted via: CDex 1.74
#
DISCID=9b08480a
DTITLE=Riquet jug band - xxx
DYEAR=1900
DGENRE=Blues
TTITLE0=You can't judge
TTITLE1=Come on boys
TTITLE2=Georgia rag
TTITLE3=Make me a pallet on your floor
TTITLE4=Big road blues
TTITLE5=Get back
TTITLE6=Long tall mama
TTITLE7=On the road again
TTITLE8=Crow Jane
TTITLE9=Easy rider blues
EXTD=
EXTT0=
EXTT1=
EXTT2=
EXTT3=
EXTT4=
EXTT5=
EXTT6=
EXTT7=
EXTT8=
EXTT9=
PLAYORDER=
